<svg width="36" height="36" viewBox="0 0 36 36" fill="none" xmlns="http://www.w3.org/2000/svg">
<g clip-path="url(#clip0_14_152)">
<path d="M18 36C27.9411 36 36 27.9411 36 18C36 8.05887 27.9411 0 18 0C8.05887 0 0 8.05887 0 18C0 27.9411 8.05887 36 18 36Z" fill="#F0D157"/>
<g clip-path="url(#clip1_14_152)">
<path d="M18 27.1667C23.0627 27.1667 27.1667 23.0626 27.1667 18C27.1667 12.9374 23.0627 8.83334 18 8.83334C12.9374 8.83334 8.83337 12.9374 8.83337 18C8.83337 23.0626 12.9374 27.1667 18 27.1667Z" stroke="black" stroke-width="1.5" stroke-linecap="round" stroke-linejoin="round"/>
<path d="M18 12.5V18L21.6667 21.6667" stroke="black" stroke-width="1.5" stroke-linecap="round" stroke-linejoin="round"/>
</g>
</g>
<defs>
<clipPath id="clip0_14_152">
<rect width="36" height="36" fill="white"/>
</clipPath>
<clipPath id="clip1_14_152">
<rect width="20" height="20" fill="white" transform="translate(8 8)"/>
</clipPath>
</defs>
</svg>
